<svg width="31" height="31" viewBox="0 0 31 31" xmlns="http://www.w3.org/2000/svg">
    <path d="M15.6799 11.0693C14.5895 11.0693 13.5438 11.5025 12.7728 12.2735C12.0018 13.0445 11.5686 14.0902 11.5686 15.1806C11.5686 16.271 12.0018 17.3167 12.7728 18.0877C13.5438 18.8587 14.5895 19.2918 15.6799 19.2918C16.7702 19.2918 17.8159 18.8587 18.5869 18.0877C19.358 17.3167 19.7911 16.271 19.7911 15.1806C19.7911 14.0902 19.358 13.0445 18.5869 12.2735C17.8159 11.5025 16.7702 11.0693 15.6799 11.0693Z" fill="black"/>
    <path fill-rule="evenodd" clip-rule="evenodd" d="M9.06395 3.89876C13.4611 3.41135 17.8987 3.41135 22.2958 3.89876C24.6981 4.16694 26.6348 6.05811 26.9169 8.4692C27.4383 12.9279 27.4383 17.4322 26.9169 21.8909C26.6348 24.3019 24.6981 26.1931 22.2971 26.4626C17.8995 26.9501 13.4615 26.9501 9.06395 26.4626C6.66171 26.1931 4.725 24.3019 4.4429 21.8921C3.92138 17.433 3.92138 12.9283 4.4429 8.4692C4.725 6.05811 6.66171 4.16694 9.06395 3.89876ZM22.0049 7.59003C21.6694 7.59003 21.3476 7.7233 21.1104 7.96054C20.8732 8.19777 20.7399 8.51953 20.7399 8.85503C20.7399 9.19053 20.8732 9.51228 21.1104 9.74952C21.3476 9.98675 21.6694 10.12 22.0049 10.12C22.3404 10.12 22.6622 9.98675 22.8994 9.74952C23.1366 9.51228 23.2699 9.19053 23.2699 8.85503C23.2699 8.51953 23.1366 8.19777 22.8994 7.96054C22.6622 7.7233 22.3404 7.59003 22.0049 7.59003ZM9.67115 15.18C9.67115 13.5864 10.3042 12.0581 11.4311 10.9312C12.5579 9.80434 14.0863 9.17128 15.6799 9.17128C17.2735 9.17128 18.8019 9.80434 19.9287 10.9312C21.0556 12.0581 21.6886 13.5864 21.6886 15.18C21.6886 16.7736 21.0556 18.302 19.9287 19.4289C18.8019 20.5557 17.2735 21.1888 15.6799 21.1888C14.0863 21.1888 12.5579 20.5557 11.4311 19.4289C10.3042 18.302 9.67115 16.7736 9.67115 15.18Z" fill="black"/>
</svg>
