<svg width="23" height="24" viewBox="0 0 23 24" fill="none" xmlns="http://www.w3.org/2000/svg">
    <path d="M20.415 0.79541C21.086 0.79541 21.7296 1.06196 22.204 1.53643C22.6785 2.0109 22.945 2.65441 22.945 3.32541V21.0354C22.945 21.7064 22.6785 22.3499 22.204 22.8244C21.7296 23.2989 21.086 23.5654 20.415 23.5654H2.70505C2.03405 23.5654 1.39054 23.2989 0.916069 22.8244C0.441602 22.3499 0.175049 21.7064 0.175049 21.0354V3.32541C0.175049 2.65441 0.441602 2.0109 0.916069 1.53643C1.39054 1.06196 2.03405 0.79541 2.70505 0.79541H20.415ZM19.7825 20.4029V13.6984C19.7825 12.6047 19.3481 11.5558 18.5747 10.7824C17.8013 10.009 16.7524 9.57451 15.6586 9.57451C14.5834 9.57451 13.331 10.2323 12.7238 11.219V9.81486H9.1945V20.4029H12.7238V14.1665C12.7238 13.1924 13.5081 12.3955 14.4822 12.3955C14.9519 12.3955 15.4024 12.582 15.7345 12.9142C16.0666 13.2463 16.2532 13.6968 16.2532 14.1665V20.4029H19.7825ZM5.08325 7.82881C5.64689 7.82881 6.18744 7.60491 6.58599 7.20635C6.98454 6.8078 7.20845 6.26725 7.20845 5.70361C7.20845 4.52716 6.2597 3.56576 5.08325 3.56576C4.51626 3.56576 3.97249 3.791 3.57156 4.19192C3.17064 4.59285 2.9454 5.13662 2.9454 5.70361C2.9454 6.88006 3.9068 7.82881 5.08325 7.82881ZM6.8416 20.4029V9.81486H3.33755V20.4029H6.8416Z" fill="black"/>
</svg>
