<svg width="26" height="23" viewBox="0 0 26 23" fill="none" xmlns="http://www.w3.org/2000/svg">
    <path fill-rule="evenodd" clip-rule="evenodd" d="M23.2777 0.60416C23.5903 0.472588 23.9325 0.42721 24.2685 0.472748C24.6046 0.518286 24.9224 0.653075 25.1887 0.863087C25.455 1.0731 25.6602 1.35065 25.7829 1.66686C25.9055 1.98308 25.9412 2.32638 25.8861 2.66105L23.0171 20.0637C22.7388 21.7423 20.897 22.705 19.3575 21.8688C18.0697 21.1693 16.157 20.0915 14.4366 18.9669C13.5764 18.404 10.9414 16.6014 11.2653 15.3186C11.5436 14.2219 15.9711 10.1005 18.5011 7.65021C19.4941 6.68754 19.0412 6.13221 17.8686 7.01771C14.9565 9.21628 10.2811 12.5597 8.73525 13.5008C7.37158 14.3307 6.66065 14.4724 5.81057 14.3307C4.25968 14.0726 2.82138 13.6729 1.64746 13.1859C0.0611463 12.5281 0.138311 10.3472 1.64619 9.71216L23.2777 0.60416Z" fill="black"/>
</svg>
