<svg width="31" height="31" viewBox="0 0 31 31" fill="none" xmlns="http://www.w3.org/2000/svg">
    <g clip-path="url(#clip0_2069_365)">
        <path d="M5.95138 6.30483C6.18041 6.27821 6.41236 6.3147 6.62216 6.41034C6.83196 6.50599 7.01163 6.65716 7.14174 6.84751C9.00888 9.57865 11.2505 10.7146 13.7387 10.9727C13.8602 9.90881 14.1473 8.8576 14.6875 7.93162C15.4794 6.57301 16.7671 5.57366 18.6064 5.20428C21.1491 4.69322 23.0845 5.61414 24.2066 6.74125L26.4735 6.31748C26.7107 6.27303 26.9557 6.29737 27.1795 6.38762C27.4033 6.47787 27.5967 6.63027 27.7367 6.82683C27.8768 7.02338 27.9576 7.2559 27.9698 7.49694C27.982 7.73797 27.925 7.97746 27.8055 8.18715L25.6297 12.01C25.8283 17.5266 24.2951 21.3773 21.0264 24.03C19.2933 25.4367 16.8114 26.2349 14.0879 26.4816C11.3428 26.7295 8.23976 26.4297 5.15569 25.529C4.89219 25.4522 4.66083 25.2917 4.49654 25.0718C4.33224 24.8519 4.24393 24.5845 4.24493 24.31C4.24593 24.0355 4.33619 23.7688 4.50208 23.5501C4.66797 23.3314 4.90049 23.1726 5.16455 23.0977C6.71544 22.6562 7.89695 22.2755 8.96334 21.6088C7.44661 20.8043 6.32961 19.7518 5.53899 18.5526C4.44097 16.8853 4.03364 15.0257 3.95268 13.3496C3.87172 11.6735 4.11333 10.1201 4.36886 9.00054C4.51434 8.36172 4.68385 7.72163 4.91787 7.10937C5.00042 6.89354 5.14051 6.70446 5.32293 6.56262C5.50535 6.42079 5.72187 6.33163 5.95138 6.30483Z" fill="black"/>
    </g>
    <defs>
        <clipPath id="clip0_2069_365">
            <rect width="30.36" height="30.36" fill="white" transform="translate(0.139893)"/>
        </clipPath>
    </defs>
</svg>
