<svg fill="currentColor" viewBox="0 0 96 35" xmlns="http://www.w3.org/2000/svg">
<path d="M25.1689 34.075C21.1426 34.075 17.1776 34.075 13.1792 34.075C13.1792 22.922 13.1792 11.8046 13.1792 0.652344C21.2909 0.652344 29.4026 0.652344 37.5463 0.652344C37.5463 11.7803 37.5463 22.8965 37.5463 34.075C33.439 34.075 29.3346 34.075 25.1689 34.075Z" fill="black"/>
<path d="M51.8025 11.9752C51.8025 8.193 51.8025 4.4722 51.8025 0.715576C53.1461 0.715576 54.4658 0.715576 55.8633 0.715576C55.8633 0.914156 55.8632 1.12987 55.8633 1.34559C55.8662 9.83521 55.862 18.3248 55.8822 26.8144C55.8844 27.7512 56.0086 28.6895 56.1122 29.6231C56.1497 29.9611 56.2304 30.326 56.4058 30.6073C56.5586 30.8521 56.8769 31.1493 57.1139 31.1423C57.3538 31.1353 57.7375 30.8176 57.7909 30.5767C58.0149 29.5666 58.2335 28.5384 58.2784 27.5092C58.3604 25.6305 58.325 23.7463 58.3259 21.8645C58.3291 15.0523 58.3272 8.24006 58.3272 1.42785C58.3272 1.20505 58.3272 0.982243 58.3272 0.719653C59.6685 0.719653 60.9864 0.719653 62.3406 0.719653C62.3509 0.77394 62.377 0.848026 62.377 0.922115C62.3761 9.28899 62.3863 17.6559 62.3607 26.0227C62.3547 27.973 62.0693 29.8943 61.2651 31.6998C60.0857 34.3473 57.1181 35.3719 54.7998 33.9285C53.7065 33.2479 53.0963 32.1915 52.669 31.0198C51.9657 29.0911 51.805 27.0791 51.8035 25.0473C51.8003 20.7104 51.8025 16.3735 51.8025 11.9752Z" fill="black"/>
<path d="M75.2654 32.1058C74.4511 30.778 74.1233 29.3441 74.0667 27.864C74.0028 26.1922 74.052 24.5161 74.052 22.8058C75.2367 22.8058 76.4125 22.8058 77.6809 22.8058C77.6809 24.1231 77.6452 25.4469 77.6927 26.7677C77.7278 27.7443 77.8484 28.7201 77.9789 29.6897C78.0237 30.0221 78.1717 30.3601 78.3459 30.6518C78.8018 31.4155 79.7132 31.4161 80.0916 30.6163C80.3382 30.0948 80.46 29.4951 80.5393 28.9169C80.9594 25.8527 80.1267 23.0761 78.6291 20.4232C77.3377 18.1358 75.9437 15.8722 74.9711 13.4473C73.5882 9.99969 73.5463 6.41771 75.1372 2.96606C75.94 1.22428 77.3211 0.19295 79.3241 0.189705C81.3371 0.186441 82.6928 1.21875 83.628 2.92634C84.3216 4.19264 84.6165 5.56478 84.6637 6.98154C84.7161 8.55357 84.6757 10.1287 84.6757 11.7477C83.4983 11.7477 82.3268 11.7477 81.1452 11.7477C81.1452 10.5523 81.1905 9.37038 81.1316 8.19373C81.0797 7.1572 80.9297 6.1239 80.7836 5.09477C80.7393 4.78206 80.5805 4.48021 80.4444 4.18718C80.2497 3.76777 79.9269 3.48642 79.4411 3.52329C78.9477 3.56076 78.5702 3.84704 78.4581 4.31828C78.2937 5.00875 78.1703 5.71641 78.1128 6.42351C77.9098 8.91919 78.6794 11.1523 79.9173 13.2923C81.1807 15.4762 82.4959 17.6546 83.4921 19.9633C85.1065 23.7049 85.2275 27.594 83.6983 31.4146C82.5814 34.2052 79.7543 35.3108 77.2886 34.077C76.418 33.6413 75.801 32.9473 75.2654 32.1058Z" fill="black"/>
<path d="M49.7733 14.1353C49.5661 15.9498 49.169 17.649 48.1878 19.1572C47.313 20.5018 46.0801 21.2874 44.4727 21.4599C44.3306 21.4752 44.1893 21.4982 44.0474 21.515C43.9303 21.5289 43.8127 21.5389 43.6504 21.5551C43.6504 25.7308 43.6504 29.8736 43.6504 34.0458C42.2816 34.0458 40.9614 34.0458 39.605 34.0458C39.605 22.9466 39.605 11.8518 39.605 0.605469C41.4563 0.685721 43.3218 0.626177 45.1417 0.885545C46.9097 1.1375 48.0003 2.43537 48.7311 4.01098C49.6267 5.94186 49.8641 8.01306 49.9177 10.1016C49.9517 11.426 49.8335 12.7543 49.7733 14.1353ZM43.6051 5.17011C43.6051 9.46976 43.6051 13.7694 43.6051 18.0838C44.2245 18.1194 44.6311 17.8969 44.8424 17.4353C45.0776 16.9215 45.3115 16.3858 45.4114 15.8352C45.9153 13.0603 45.9089 10.2635 45.5766 7.47405C45.472 6.59609 45.1984 5.72605 44.9024 4.88758C44.7201 4.37104 44.2903 4.0221 43.6051 4.14363C43.6051 4.44526 43.6051 4.74807 43.6051 5.17011Z" fill="black"/>
<path d="M91.9677 18.888C91.5431 18.888 91.1787 18.888 90.7778 18.888C90.7778 22.7091 90.7778 26.4845 90.7778 30.3179C92.3246 30.3179 93.8884 30.3179 95.486 30.3179C95.486 31.5911 95.486 32.8068 95.486 34.0489C92.5765 34.0489 89.6778 34.0489 86.7339 34.0489C86.7339 22.9649 86.7339 11.8682 86.7339 0.725586C89.614 0.725586 92.5271 0.725586 95.4802 0.725586C95.4802 1.90889 95.4802 3.12128 95.4802 4.37447C93.9247 4.37447 92.3779 4.37447 90.7862 4.37447C90.7862 7.97981 90.7862 11.5452 90.7862 15.1643C91.9563 15.1643 93.1324 15.1643 94.3431 15.1643C94.3431 16.4138 94.3431 17.6103 94.3431 18.888C93.566 18.888 92.7969 18.888 91.9677 18.888Z" fill="black"/>
<path d="M7.74614 28.1942C7.30658 23.4768 6.86864 18.816 6.43407 14.1548C6.16649 11.2849 5.90409 8.41443 5.63947 5.5442C5.63759 5.52384 5.64249 5.50106 5.63501 5.48329C5.53557 5.24722 5.43449 5.01184 5.33383 4.77629C5.26348 5.01376 5.12451 5.25362 5.13268 5.48836C5.4535 14.7044 5.78798 23.9199 6.11902 33.1355C6.12854 33.4003 6.12024 33.6658 6.12024 33.9739C5.39677 33.9739 4.67713 33.9739 3.93555 33.9739C3.93555 22.8603 3.93555 11.7603 3.93555 0.637695C4.87898 0.637695 5.79365 0.637695 6.75129 0.637695C6.95604 2.80095 7.16252 4.95559 7.36344 7.11074C7.75056 11.263 8.13245 15.4157 8.52048 19.5678C8.82676 22.8448 9.14123 26.1211 9.44503 29.3984C9.47283 29.6982 9.45196 30.0005 9.95544 29.8186C9.60799 20.1159 9.25998 10.3977 8.9108 0.646227C9.68083 0.646227 10.3856 0.646227 11.1224 0.646227C11.1224 11.7539 11.1224 22.8345 11.1224 33.966C10.2068 33.966 9.28193 33.966 8.29625 33.966C8.11418 32.064 7.93167 30.1574 7.74614 28.1942Z" fill="black"/>
<path d="M64.3921 24.7437C64.3921 16.7051 64.3921 8.72798 64.3921 0.7146C65.7505 0.7146 67.0691 0.7146 68.4475 0.7146C68.4475 10.5665 68.4475 20.4198 68.4475 30.3271C70.0493 30.3271 71.5935 30.3271 73.1755 30.3271C73.1755 31.5969 73.1755 32.8132 73.1755 34.0529C70.2698 34.0529 67.3697 34.0529 64.3921 34.0529C64.3921 30.9685 64.3921 27.8868 64.3921 24.7437Z" fill="black"/>
<path d="M0 1.55162C0 1.22698 0 0.961789 0 0.657227C0.646817 0.657227 1.26998 0.657227 1.93973 0.657227C1.93973 11.7456 1.93973 22.8401 1.93973 33.9747C1.33004 33.9747 0.70681 33.9747 0 33.9747C0 23.1914 0 12.4012 0 1.55162Z" fill="black"/>
</svg>
