<svg width="46" height="46" viewBox="0 0 46 46" fill="none" xmlns="http://www.w3.org/2000/svg">
<g opacity="0.8" filter="url(#filter0_b_1103_3059)">
<path fill-rule="evenodd" clip-rule="evenodd" d="M23.2162 45.2863C10.9092 45.2863 0.932415 35.3095 0.932415 23.0025C0.932415 10.6955 10.9092 0.71875 23.2162 0.71875C35.5232 0.71875 45.5 10.6955 45.5 23.0025C45.5 35.3095 35.5232 45.2863 23.2162 45.2863ZM24.5289 15.2377C24.1587 15.2377 23.8036 15.3848 23.5418 15.6465C23.28 15.9084 23.133 16.2635 23.133 16.6337C23.133 17.0039 23.28 17.359 23.5418 17.6208L27.3214 21.5206H15.6208C15.2505 21.5206 14.8954 21.6677 14.6335 21.9295C14.3717 22.1914 14.2246 22.5465 14.2246 22.9168C14.2246 23.2871 14.3717 23.6423 14.6335 23.9041C14.8954 24.166 15.2505 24.3131 15.6208 24.3131H27.3214L23.5418 28.2128C23.2874 28.4761 23.1467 28.8288 23.1499 29.1949C23.1531 29.561 23.2999 29.9112 23.5588 30.1701C23.8177 30.4289 24.1679 30.5758 24.534 30.579C24.9 30.5822 25.2527 30.4414 25.5161 30.1871L31.7992 23.904C32.061 23.6421 32.208 23.2871 32.208 22.9168C32.208 22.5466 32.061 22.1915 31.7992 21.9297L25.5161 15.6465C25.2542 15.3848 24.8992 15.2377 24.5289 15.2377Z" fill="white" fill-opacity="0.4"/>
</g>
<defs>
<filter id="filter0_b_1103_3059" x="-56.743" y="-56.9569" width="159.919" height="159.919" filterUnits="userSpaceOnUse" color-interpolation-filters="sRGB">
<feFlood flood-opacity="0" result="BackgroundImageFix"/>
<feGaussianBlur in="BackgroundImageFix" stdDeviation="28.8378"/>
<feComposite in2="SourceAlpha" operator="in" result="effect1_backgroundBlur_1103_3059"/>
<feBlend mode="normal" in="SourceGraphic" in2="effect1_backgroundBlur_1103_3059" result="shape"/>
</filter>
</defs>
</svg>
