<svg width="20" height="20" viewBox="0 0 20 20" fill="none" xmlns="http://www.w3.org/2000/svg">
<path d="M17.4731 0.155273C18.0425 0.155273 18.5885 0.381439 18.9911 0.784017C19.3936 1.1866 19.6198 1.73261 19.6198 2.30194V17.3286C19.6198 17.8979 19.3936 18.4439 18.9911 18.8465C18.5885 19.2491 18.0425 19.4753 17.4731 19.4753H2.44647C1.87714 19.4753 1.33113 19.2491 0.928549 18.8465C0.525971 18.4439 0.299805 17.8979 0.299805 17.3286V2.30194C0.299805 1.73261 0.525971 1.1866 0.928549 0.784017C1.33113 0.381439 1.87714 0.155273 2.44647 0.155273H17.4731ZM16.9365 16.7919V11.1033C16.9365 10.1753 16.5678 9.28526 15.9116 8.62906C15.2554 7.97286 14.3654 7.60421 13.4374 7.60421C12.5251 7.60421 11.4625 8.16234 10.9473 8.99954V7.80814H7.95267V16.7919H10.9473V11.5004C10.9473 10.6739 11.6127 9.99774 12.4392 9.99774C12.8377 9.99774 13.2199 10.1561 13.5017 10.4379C13.7836 10.7197 13.9419 11.1019 13.9419 11.5004V16.7919H16.9365ZM4.46434 6.12301C4.94258 6.12301 5.40123 5.93303 5.73939 5.59486C6.07756 5.2567 6.26754 4.79805 6.26754 4.31981C6.26754 3.32161 5.46254 2.50587 4.46434 2.50587C3.98325 2.50587 3.52187 2.69698 3.18169 3.03716C2.84151 3.37734 2.6504 3.83872 2.6504 4.31981C2.6504 5.31801 3.46614 6.12301 4.46434 6.12301ZM5.95627 16.7919V7.80814H2.98314V16.7919H5.95627Z" fill="#FE1B1C"/>
</svg>
