<svg width="42" height="47" viewBox="0 0 42 47" fill="none" xmlns="http://www.w3.org/2000/svg">
    <path d="M13.9564 43.6275L13.9589 43.6235L23.8581 27.5373L28.4627 30.1159L19.6273 46.7983L13.9564 43.6275ZM13.475 16.7164L22.2488 0.0339242L27.8582 3.26547L27.8552 3.27035L17.9563 19.3561L13.475 16.7164ZM30.3462 20.2278L40.6027 36.1069L34.9314 39.4357H34.8906L25.8028 22.9293L30.3462 20.2278ZM0.0244892 27.4677L18.8699 28.0238L18.9927 33.242L0.0244892 34.0452V27.5044V27.4677ZM22.9448 13.5898L41.9138 12.7866L41.9753 19.3029H41.9384H41.938L22.9448 18.8699V13.5898ZM11.4681 26.5421L1.3351 10.6011L6.92867 7.28183L15.9495 23.9024L11.4681 26.5421Z" fill="#FFDDDD" stroke="#C7CBCF" stroke-width="0.0489783"/>
</svg>
