<svg width="15" height="14" viewBox="0 0 17 19" fill="none" xmlns="http://www.w3.org/2000/svg">
<path d="M13.2918 3.0625C12.5798 2.24961 12.1874 1.20566 12.1877 0.125H8.96891V13.0417C8.94409 13.7407 8.64899 14.4027 8.14575 14.8885C7.64252 15.3742 6.97042 15.6457 6.271 15.6458C4.79183 15.6458 3.56266 14.4375 3.56266 12.9375C3.56266 11.1458 5.29183 9.80208 7.07308 10.3542V7.0625C3.47933 6.58333 0.333496 9.375 0.333496 12.9375C0.333496 16.4062 3.2085 18.875 6.26058 18.875C9.53141 18.875 12.1877 16.2188 12.1877 12.9375V6.38542C13.4929 7.32276 15.0599 7.82567 16.6668 7.82292V4.60417C16.6668 4.60417 14.7085 4.69792 13.2918 3.0625Z" fill="#FE1B1C"/>
</svg>
