<svg width="17" height="16" viewBox="0 0 17 16" fill="none" xmlns="http://www.w3.org/2000/svg">
    <path d="M0.357567 13.678C-0.0148304 13.994 -0.060571 14.5521 0.255403 14.9245C0.571376 15.2969 1.12941 15.3426 1.50181 15.0266L0.357567 13.678ZM16.4019 2.04441C16.4418 1.55766 16.0796 1.13072 15.5928 1.09083L7.66076 0.440656C7.17401 0.400758 6.74708 0.763005 6.70718 1.24976C6.66728 1.73651 7.02953 2.16344 7.51628 2.20334L14.567 2.78127L13.9891 9.832C13.9492 10.3188 14.3114 10.7457 14.7982 10.7856C15.2849 10.8255 15.7119 10.4632 15.7518 9.97649L16.4019 2.04441ZM1.50181 15.0266L16.0927 2.64645L14.9485 1.29788L0.357567 13.678L1.50181 15.0266Z" fill="black"/>
</svg>
