<svg width="43" height="42" viewBox="0 0 43 42" fill="none" xmlns="http://www.w3.org/2000/svg">
    <mask id="path-1-inside-1_2021_221" fill="white">
        <path d="M0.5 0C12.3339 11.0138 30.6661 11.0138 42.5 0C31.4862 11.8339 31.4862 30.1661 42.5 42C30.6661 30.9862 12.3339 30.9862 0.5 42C11.5138 30.1661 11.5138 11.8339 0.5 0Z"/>
    </mask>
    <path d="M0.5 0C12.3339 11.0138 30.6661 11.0138 42.5 0C31.4862 11.8339 31.4862 30.1661 42.5 42C30.6661 30.9862 12.3339 30.9862 0.5 42C11.5138 30.1661 11.5138 11.8339 0.5 0Z" fill="#FFDDDD"/>
    <path d="M0.5 0L0.614457 -0.122978L0.377022 0.114457L0.5 0ZM42.5 0L42.623 0.114457L42.3855 -0.122978L42.5 0ZM42.5 42L42.3855 42.123L42.623 41.8855L42.5 42ZM0.5 42L0.377022 41.8855L0.614457 42.123L0.5 42ZM0.622978 42.1145C11.6968 30.2161 11.6968 11.7839 0.622978 -0.114457L0.377022 0.114457C11.3308 11.8838 11.3308 30.1162 0.377022 41.8855L0.622978 42.1145ZM42.6145 41.877C30.7161 30.8032 12.2839 30.8032 0.385543 41.877L0.614457 42.123C12.3838 31.1692 30.6162 31.1692 42.3855 42.123L42.6145 41.877ZM42.377 -0.114457C31.3032 11.7839 31.3032 30.2161 42.377 42.1145L42.623 41.8855C31.6692 30.1162 31.6692 11.8838 42.623 0.114457L42.377 -0.114457ZM0.385543 0.122978C12.2839 11.1968 30.7161 11.1968 42.6145 0.122978L42.3855 -0.122978C30.6162 10.8308 12.3838 10.8308 0.614457 -0.122978L0.385543 0.122978Z" fill="#C7CBCF" mask="url(#path-1-inside-1_2021_221)"/>
</svg>
