<svg viewBox="0 0 63 24" fill="none" xmlns="http://www.w3.org/2000/svg">
<path d="M16.8842 22.8681C14.2717 22.8681 11.699 22.8681 9.10449 22.8681C9.10449 15.6312 9.10449 8.41749 9.10449 1.18115C14.3679 1.18115 19.6314 1.18115 24.9155 1.18115C24.9155 8.40176 24.9155 15.6147 24.9155 22.8681C22.2504 22.8681 19.5872 22.8681 16.8842 22.8681Z" fill="#FEFEFE"/>
<path d="M34.166 8.52818C34.166 6.07404 34.166 3.65973 34.166 1.22217C35.0378 1.22217 35.8941 1.22217 36.8009 1.22217C36.8009 1.35102 36.8009 1.49099 36.8009 1.63097C36.8028 7.13962 36.8001 12.6483 36.8132 18.1569C36.8146 18.7647 36.8952 19.3736 36.9624 19.9794C36.9868 20.1987 37.0391 20.4355 37.153 20.618C37.2521 20.7769 37.4587 20.9697 37.6124 20.9652C37.7681 20.9606 38.017 20.7544 38.0517 20.5981C38.197 19.9427 38.3389 19.2755 38.3681 18.6077C38.4213 17.3887 38.3982 16.1661 38.3988 14.945C38.4009 10.5248 38.3997 6.10457 38.3997 1.68434C38.3997 1.53977 38.3997 1.3952 38.3997 1.22481C39.27 1.22481 40.1251 1.22481 41.0039 1.22481C41.0105 1.26004 41.0275 1.30811 41.0275 1.35618C41.0269 6.78519 41.0335 12.2142 41.0169 17.6432C41.013 18.9087 40.8278 20.1554 40.306 21.3269C39.5407 23.0448 37.6152 23.7096 36.1109 22.773C35.4015 22.3314 35.0055 21.646 34.7283 20.8856C34.2719 19.6342 34.1676 18.3286 34.1666 17.0103C34.1646 14.1962 34.166 11.3821 34.166 8.52818Z" fill="#FEFEFE"/>
<path d="M49.3903 21.5902C48.8619 20.7287 48.6492 19.7983 48.6125 18.8379C48.571 17.7531 48.6029 16.6655 48.6029 15.5558C49.3717 15.5558 50.1346 15.5558 50.9576 15.5558C50.9576 16.4105 50.9345 17.2695 50.9653 18.1265C50.9881 18.7602 51.0663 19.3933 51.151 20.0225C51.1801 20.2382 51.2761 20.4575 51.3891 20.6468C51.6849 21.1423 52.2764 21.1427 52.5219 20.6237C52.6819 20.2854 52.7609 19.8962 52.8123 19.5211C53.0849 17.5328 52.5447 15.7311 51.5729 14.0098C50.735 12.5256 49.8304 11.0568 49.1993 9.48333C48.302 7.24627 48.2748 4.92202 49.3071 2.68235C49.828 1.55217 50.7242 0.88297 52.0238 0.880864C53.33 0.878747 54.2097 1.54858 54.8166 2.65659C55.2666 3.47825 55.4579 4.36858 55.4886 5.28788C55.5225 6.30792 55.4963 7.32996 55.4963 8.38047C54.7324 8.38047 53.9723 8.38047 53.2055 8.38047C53.2055 7.6048 53.2349 6.83793 53.1967 6.07443C53.163 5.40186 53.0657 4.73138 52.9709 4.06361C52.9421 3.8607 52.8391 3.66484 52.7508 3.4747C52.6245 3.20256 52.415 3.02 52.0998 3.04393C51.7796 3.06824 51.5347 3.254 51.4619 3.55977C51.3553 4.0078 51.2752 4.46697 51.2379 4.92579C51.1062 6.54516 51.6055 7.99419 52.4088 9.38271C53.2286 10.7998 54.082 12.2133 54.7283 13.7113C55.7759 16.1392 55.8544 18.6627 54.8622 21.1417C54.1374 22.9525 52.303 23.6699 50.7031 22.8693C50.1382 22.5866 49.7378 22.1363 49.3903 21.5902Z" fill="#FDFDFD"/>
<path d="M32.8494 9.92976C32.715 11.1071 32.4573 12.2097 31.8206 13.1883C31.253 14.0608 30.453 14.5705 29.41 14.6824C29.3178 14.6923 29.2261 14.7073 29.134 14.7182C29.058 14.7272 28.9817 14.7337 28.8764 14.7442C28.8764 17.4537 28.8764 20.1418 28.8764 22.849C27.9883 22.849 27.1316 22.849 26.2515 22.849C26.2515 15.6471 26.2515 8.44806 26.2515 1.15063C27.4528 1.20271 28.6632 1.16407 29.8441 1.33237C30.9913 1.49586 31.6989 2.338 32.1731 3.36037C32.7542 4.61325 32.9083 5.95719 32.9431 7.31238C32.9651 8.17176 32.8885 9.03366 32.8494 9.92976ZM28.847 4.11249C28.847 6.9024 28.847 9.69232 28.847 12.4918C29.2489 12.5149 29.5127 12.3705 29.6499 12.071C29.8025 11.7376 29.9542 11.39 30.0191 11.0327C30.3461 9.2322 30.3419 7.41744 30.1262 5.60745C30.0584 5.03776 29.8809 4.47322 29.6888 3.92917C29.5705 3.594 29.2917 3.36758 28.847 3.44644C28.847 3.64216 28.847 3.83864 28.847 4.11249Z" fill="#FBFBFB"/>
<path d="M60.2276 13.0136C59.9521 13.0136 59.7156 13.0136 59.4555 13.0136C59.4555 15.493 59.4555 17.9427 59.4555 20.4301C60.4592 20.4301 61.4739 20.4301 62.5105 20.4301C62.5105 21.2562 62.5105 22.045 62.5105 22.851C60.6226 22.851 58.7418 22.851 56.8315 22.851C56.8315 15.6589 56.8315 8.45863 56.8315 1.22852C58.7004 1.22852 60.5906 1.22852 62.5068 1.22852C62.5068 1.99632 62.5068 2.78301 62.5068 3.59616C61.4975 3.59616 60.4938 3.59616 59.461 3.59616C59.461 5.93556 59.461 8.24903 59.461 10.5974C60.2202 10.5974 60.9834 10.5974 61.7689 10.5974C61.7689 11.4081 61.7689 12.1845 61.7689 13.0136C61.2647 13.0136 60.7657 13.0136 60.2276 13.0136Z" fill="#FEFEFE"/>
<path d="M5.57902 19.052C5.29381 15.991 5.00964 12.9667 4.72766 9.94224C4.55403 8.08002 4.38377 6.21747 4.21207 4.35507C4.21085 4.34186 4.21403 4.32708 4.20917 4.31554C4.14465 4.16236 4.07907 4.00964 4.01375 3.85679C3.9681 4.01088 3.87793 4.16652 3.88323 4.31884C4.0914 10.2988 4.30843 16.2785 4.52324 22.2582C4.52941 22.4301 4.52402 22.6023 4.52402 22.8022C4.05459 22.8022 3.58764 22.8022 3.10645 22.8022C3.10645 15.591 3.10645 8.38854 3.10645 1.17139C3.71861 1.17139 4.31211 1.17139 4.93349 1.17139C5.06635 2.57506 5.20033 3.97314 5.3307 5.37155C5.58189 8.06579 5.82969 10.7604 6.08147 13.4545C6.28021 15.5809 6.48425 17.7068 6.68138 19.8333C6.69942 20.0279 6.68587 20.224 7.01257 20.106C6.78712 13.8102 6.56131 7.50436 6.33473 1.17692C6.83438 1.17692 7.2917 1.17692 7.76976 1.17692C7.76976 8.38434 7.76976 15.5742 7.76976 22.7971C7.17569 22.7971 6.57555 22.7971 5.93597 22.7971C5.81783 21.563 5.69941 20.3258 5.57902 19.052Z" fill="#F9F9F9"/>
<path d="M42.3354 16.8132C42.3354 11.5972 42.3354 6.42107 42.3354 1.22144C43.2169 1.22144 44.0725 1.22144 44.9668 1.22144C44.9668 7.61405 44.9668 14.0075 44.9668 20.4361C46.0062 20.4361 47.0082 20.4361 48.0347 20.4361C48.0347 21.26 48.0347 22.0492 48.0347 22.8537C46.1493 22.8537 44.2675 22.8537 42.3354 22.8537C42.3354 20.8523 42.3354 18.8526 42.3354 16.8132Z" fill="#F9F9F9"/>
<path d="M0.553223 1.76467C0.553223 1.55402 0.553223 1.38195 0.553223 1.18433C0.972922 1.18433 1.37728 1.18433 1.81185 1.18433C1.81185 8.37925 1.81185 15.5781 1.81185 22.803C1.41624 22.803 1.01185 22.803 0.553223 22.803C0.553223 15.8061 0.553223 8.80466 0.553223 1.76467Z" fill="#FEFEFE"/>
</svg>
