<svg width="283" height="43" viewBox="0 0 283 43" fill="none" xmlns="http://www.w3.org/2000/svg">
<g style="mix-blend-mode:overlay">
<path d="M0.94559 1.08299L11.1609 1.08299L11.1609 41.6199H0.94559L0.94559 1.08299ZM56.6141 34.6475L53.3171 35.2421L53.3171 1.08299L63.2081 1.08299L63.2081 41.6199H50.3444L25.644 7.46079L28.941 6.86625L28.941 41.6199L19.05 41.6199L19.05 1.08299L32.292 1.08299L56.6141 34.6475ZM93.5238 1.08299C96.8388 1.08299 99.6854 1.65951 102.064 2.81256C104.478 3.92958 106.315 5.51502 107.577 7.56889C108.874 9.62276 109.522 12.0189 109.522 14.7574C109.522 17.4959 108.874 19.8921 107.577 21.946C106.315 23.9998 104.478 25.6033 102.064 26.7563C99.6854 27.8734 96.8388 28.4319 93.5238 28.4319H75.7957V20.1623H92.9833C94.9291 20.1623 96.4605 19.6939 97.5775 18.7571C98.6945 17.7842 99.253 16.451 99.253 14.7574C99.253 13.0639 98.6945 11.7487 97.5775 10.8118C96.4605 9.83896 94.9291 9.35252 92.9833 9.35252H76.7145L81.3087 4.59618L81.3087 41.6199H71.0934L71.0934 1.08299L93.5238 1.08299ZM124.261 23.6755C124.261 25.6573 124.639 27.3869 125.396 28.8643C126.189 30.3056 127.324 31.4226 128.801 32.2153C130.278 32.972 132.098 33.3503 134.26 33.3503C136.458 33.3503 138.296 32.972 139.773 32.2153C141.25 31.4226 142.367 30.3056 143.124 28.8643C143.881 27.3869 144.259 25.6573 144.259 23.6755V1.08299L154.42 1.08299V24.162C154.42 27.8373 153.574 31.0443 151.88 33.7827C150.223 36.5212 147.88 38.6652 144.854 40.2146C141.827 41.728 138.296 42.4847 134.26 42.4847C130.224 42.4847 126.693 41.728 123.666 40.2146C120.64 38.6652 118.279 36.5212 116.586 33.7827C114.892 31.0443 114.046 27.8373 114.046 24.162V1.08299L124.261 1.08299V23.6755ZM172.042 1.08299V37.0797L167.447 32.5937L197.823 32.5937V41.6199L161.826 41.6199V1.08299L172.042 1.08299ZM199.52 28.3778H209.844C210.024 29.6029 210.582 30.6839 211.519 31.6208C212.456 32.5576 213.699 33.2783 215.248 33.7827C216.834 34.2872 218.672 34.5394 220.761 34.5394C223.752 34.5394 226.094 34.1251 227.788 33.2963C229.517 32.4675 230.382 31.2965 230.382 29.7831C230.382 28.6301 229.878 27.7473 228.869 27.1347C227.896 26.4861 226.058 26.0177 223.356 25.7294L215.519 24.9187C210.078 24.3782 206.132 23.117 203.682 21.1352C201.268 19.1534 200.061 16.451 200.061 13.0279C200.061 10.3254 200.853 8.0193 202.439 6.10956C204.06 4.19983 206.312 2.7405 209.195 1.73158C212.114 0.722662 215.519 0.218203 219.41 0.218203C223.266 0.218203 226.671 0.776712 229.626 1.89373C232.58 3.01074 234.94 4.56015 236.706 6.54196C238.472 8.52376 239.426 10.8299 239.571 13.4603H229.247C229.103 12.3793 228.599 11.4604 227.734 10.7037C226.905 9.91102 225.77 9.29846 224.329 8.86607C222.923 8.39765 221.212 8.16343 219.194 8.16343C216.492 8.16343 214.33 8.55979 212.708 9.35252C211.123 10.1092 210.33 11.2082 210.33 12.6495C210.33 13.7305 210.798 14.5773 211.735 15.1898C212.708 15.8024 214.42 16.2528 216.87 16.5411L225.139 17.4599C228.923 17.8563 231.95 18.4868 234.22 19.3516C236.49 20.2164 238.129 21.4055 239.138 22.9189C240.147 24.4322 240.652 26.342 240.652 28.6481C240.652 31.4226 239.805 33.8548 238.111 35.9447C236.454 37.9986 234.112 39.602 231.085 40.7551C228.094 41.9081 224.599 42.4847 220.599 42.4847C216.456 42.4847 212.816 41.8901 209.681 40.701C206.583 39.512 204.132 37.8725 202.331 35.7826C200.565 33.6566 199.628 31.1884 199.52 28.3778ZM280.489 17.568V25.1349H251.14V17.568L280.489 17.568ZM258.058 21.3514L255.356 38.1067L251.086 33.2963H282.218V41.6199H245.141L248.275 21.3514L245.141 1.08299L281.948 1.08299V9.40656L251.086 9.40656L255.356 4.59618L258.058 21.3514Z" fill="white"/>
</g>
</svg>
