<svg width="13" height="16" viewBox="0 0 13 16" fill="none" xmlns="http://www.w3.org/2000/svg">
<path d="M6.97362 1.21387L6.97362 0.713867L5.97362 0.713867L5.97362 1.21387L6.97362 1.21387ZM5.97362 15.3103C5.97362 15.5864 6.19747 15.8103 6.47362 15.8103C6.74976 15.8103 6.97362 15.5864 6.97362 15.3103L5.97362 15.3103ZM11.7202 10.5637L12.2202 10.5637L12.2202 9.5637L11.7202 9.5637L11.7202 10.5637ZM6.08739 15.0182C5.95517 15.2606 6.0445 15.5643 6.28693 15.6965C6.52935 15.8287 6.83307 15.7394 6.9653 15.497L6.08739 15.0182ZM1.27975 9.56366L0.779748 9.56366L0.779748 10.5637L1.27975 10.5637L1.27975 9.56366ZM5.97362 1.21387L5.97362 15.2575L6.97362 15.2575L6.97362 1.21387L5.97362 1.21387ZM5.97362 15.2575L5.97362 15.3103L6.97362 15.3103L6.97362 15.2575L5.97362 15.2575ZM11.7202 9.5637C10.9563 9.5637 10.224 9.9766 9.5968 10.4876C8.95739 11.0086 8.35524 11.6911 7.84227 12.3549C7.32703 13.0217 6.88937 13.686 6.58115 14.1822C6.42675 14.4307 6.30413 14.6382 6.21977 14.7842C6.17758 14.8572 6.14492 14.9149 6.12259 14.9547C6.11143 14.9747 6.10285 14.9901 6.09695 15.0008C6.094 15.0061 6.09172 15.0103 6.09012 15.0132C6.08932 15.0146 6.0887 15.0158 6.08824 15.0166C6.08801 15.017 6.08783 15.0174 6.08769 15.0176C6.08762 15.0177 6.08754 15.0179 6.08751 15.0179C6.08745 15.0181 6.08739 15.0182 6.52635 15.2576C6.9653 15.497 6.96527 15.497 6.96525 15.4971C6.96526 15.4971 6.96525 15.4971 6.96526 15.4971C6.96529 15.497 6.96537 15.4969 6.96548 15.4966C6.96572 15.4962 6.96612 15.4955 6.96669 15.4944C6.96784 15.4924 6.96966 15.489 6.97214 15.4846C6.97711 15.4756 6.98472 15.4619 6.99488 15.4437C7.01521 15.4075 7.04571 15.3536 7.08559 15.2846C7.16538 15.1465 7.28253 14.9482 7.4306 14.7099C7.72733 14.2322 8.14545 13.598 8.63356 12.9664C9.12394 12.3317 9.6727 11.7157 10.2285 11.2629C10.7965 10.8 11.3037 10.5637 11.7202 10.5637L11.7202 9.5637ZM6.47362 15.2575C6.9372 15.0702 6.93715 15.0701 6.93708 15.0699C6.93705 15.0698 6.93698 15.0697 6.93692 15.0695C6.93679 15.0692 6.93663 15.0688 6.93644 15.0683C6.93606 15.0674 6.93554 15.0661 6.9349 15.0646C6.93362 15.0614 6.93183 15.0571 6.92953 15.0515C6.92492 15.0404 6.91828 15.0244 6.90963 15.004C6.89234 14.9633 6.86702 14.9045 6.83393 14.8305C6.76778 14.6823 6.67042 14.4724 6.54395 14.2212C6.29164 13.72 5.92043 13.0482 5.44662 12.3733C4.97462 11.701 4.3887 11.008 3.70224 10.4791C3.01507 9.9497 2.19877 9.56366 1.27975 9.56366L1.27975 10.5637C1.90834 10.5637 2.51508 10.8269 3.09193 11.2713C3.66951 11.7163 4.18861 12.3218 4.62817 12.9479C5.06591 13.5714 5.41282 14.1982 5.65073 14.6708C5.76937 14.9065 5.86015 15.1023 5.92086 15.2383C5.9512 15.3062 5.97399 15.3591 5.98895 15.3943C5.99643 15.412 6.00195 15.4252 6.00547 15.4338C6.00723 15.438 6.0085 15.4411 6.00926 15.443C6.00964 15.4439 6.0099 15.4445 6.01002 15.4448C6.01009 15.445 6.01012 15.4451 6.01012 15.4451C6.01012 15.4451 6.0101 15.445 6.0101 15.445C6.01007 15.4449 6.01003 15.4448 6.47362 15.2575Z" fill="black"/>
</svg>
