<svg width="42" height="42" viewBox="0 0 42 42" fill="none" xmlns="http://www.w3.org/2000/svg">
    <path d="M23.4999 19.2288L23.5923 19.367L40.1274 12.5184L40.5216 13.4705L23.9841 20.32L24.0166 20.4831L41.9152 20.4831V21.5136L24.0166 21.5136L23.9841 21.6766L40.5216 28.5262L40.1274 29.4783L23.5866 22.6274L23.4943 22.7656L36.1533 35.4246L35.4246 36.1533L22.7656 23.4943L22.6274 23.5866L29.4783 40.1274L28.5262 40.5216L21.6766 23.9841L21.5136 24.0166L21.5136 41.9152H20.4831L20.4831 24.0166L20.32 23.9841L13.4705 40.5216L12.5184 40.1274L19.367 23.5923L19.2288 23.4999L6.57542 36.1533L5.84675 35.4246L18.5057 22.7656L18.4134 22.6274L1.87269 29.4783L1.47836 28.5262L18.0159 21.6766L17.9834 21.5136H0.08475L0.08475 20.4831H17.9834L18.0159 20.32L1.47836 13.4705L1.87269 12.5184L18.4076 19.3669L18.5 19.2286L5.84675 6.57542L6.57542 5.84675L19.2288 18.5L19.367 18.4076L12.5184 1.87269L13.4705 1.47836L20.32 18.0159L20.4831 17.9834V0.08475L21.5136 0.08475V17.9834L21.6766 18.0159L28.5262 1.47836L29.4783 1.87269L22.6274 18.4134L22.7656 18.5057L35.4246 5.84675L36.1533 6.57542L23.4999 19.2288Z" fill="#FFDDDD" stroke="#FFDDDD" stroke-width="0.1695"/>
</svg>
