<svg width="26" height="27" viewBox="0 0 26 27" fill="none" xmlns="http://www.w3.org/2000/svg">
<path d="M12.8799 10.3271C11.9548 10.3271 11.0675 10.6947 10.4133 11.3489C9.75912 12.003 9.3916 12.8903 9.3916 13.8155C9.3916 14.7406 9.75912 15.6279 10.4133 16.2821C11.0675 16.9363 11.9548 17.3038 12.8799 17.3038C13.8051 17.3038 14.6924 16.9363 15.3466 16.2821C16.0007 15.6279 16.3683 14.7406 16.3683 13.8155C16.3683 12.8903 16.0007 12.003 15.3466 11.3489C14.6924 10.6947 13.8051 10.3271 12.8799 10.3271Z" fill="#FE1B1C"/>
<path fill-rule="evenodd" clip-rule="evenodd" d="M7.26644 4.24327C10.9974 3.82972 14.7626 3.82972 18.4935 4.24327C20.5318 4.47082 22.175 6.07545 22.4144 8.12122C22.8568 11.9044 22.8568 15.7262 22.4144 19.5093C22.175 21.5551 20.5318 23.1597 18.4946 23.3883C14.7633 23.802 10.9977 23.802 7.26644 23.3883C5.22818 23.1597 3.5849 21.5551 3.34555 19.5104C2.90305 15.7269 2.90305 11.9047 3.34555 8.12122C3.5849 6.07545 5.22818 4.47082 7.26644 4.24327ZM18.2466 7.37526C17.962 7.37526 17.689 7.48834 17.4877 7.68963C17.2864 7.89092 17.1733 8.16393 17.1733 8.44859C17.1733 8.73326 17.2864 9.00626 17.4877 9.20755C17.689 9.40884 17.962 9.52192 18.2466 9.52192C18.5313 9.52192 18.8043 9.40884 19.0056 9.20755C19.2069 9.00626 19.32 8.73326 19.32 8.44859C19.32 8.16393 19.2069 7.89092 19.0056 7.68963C18.8043 7.48834 18.5313 7.37526 18.2466 7.37526ZM7.78164 13.8153C7.78164 12.4631 8.31878 11.1663 9.27491 10.2102C10.231 9.25407 11.5278 8.71692 12.88 8.71692C14.2321 8.71692 15.5289 9.25407 16.485 10.2102C17.4412 11.1663 17.9783 12.4631 17.9783 13.8153C17.9783 15.1674 17.4412 16.4642 16.485 17.4203C15.5289 18.3764 14.2321 18.9136 12.88 18.9136C11.5278 18.9136 10.231 18.3764 9.27491 17.4203C8.31878 16.4642 7.78164 15.1674 7.78164 13.8153Z" fill="#FE1B1C"/>
</svg>
