<svg width="30" height="30" viewBox="0 0 26 26" fill="none" xmlns="http://www.w3.org/2000/svg">
<path d="M12.8799 9.39209C11.9548 9.39209 11.0675 9.75961 10.4133 10.4138C9.75912 11.068 9.3916 11.9553 9.3916 12.8804C9.3916 13.8056 9.75912 14.6929 10.4133 15.347C11.0675 16.0012 11.9548 16.3688 12.8799 16.3688C13.8051 16.3688 14.6924 16.0012 15.3466 15.347C16.0007 14.6929 16.3683 13.8056 16.3683 12.8804C16.3683 11.9553 16.0007 11.068 15.3466 10.4138C14.6924 9.75961 13.8051 9.39209 12.8799 9.39209Z" fill="#FE1B1C"/>
<path fill-rule="evenodd" clip-rule="evenodd" d="M7.26644 3.30821C10.9974 2.89466 14.7626 2.89466 18.4935 3.30821C20.5318 3.53576 22.175 5.14039 22.4144 7.18617C22.8568 10.9693 22.8568 14.7911 22.4144 18.5742C22.175 20.62 20.5318 22.2246 18.4946 22.4533C14.7633 22.8669 10.9977 22.8669 7.26644 22.4533C5.22818 22.2246 3.5849 20.62 3.34555 18.5753C2.90305 14.7918 2.90305 10.9697 3.34555 7.18617C3.5849 5.14039 5.22818 3.53576 7.26644 3.30821ZM18.2466 6.4402C17.962 6.4402 17.689 6.55328 17.4877 6.75457C17.2864 6.95586 17.1733 7.22887 17.1733 7.51353C17.1733 7.7982 17.2864 8.0712 17.4877 8.27249C17.689 8.47378 17.962 8.58687 18.2466 8.58687C18.5313 8.58687 18.8043 8.47378 19.0056 8.27249C19.2069 8.0712 19.32 7.7982 19.32 7.51353C19.32 7.22887 19.2069 6.95586 19.0056 6.75457C18.8043 6.55328 18.5313 6.4402 18.2466 6.4402ZM7.78164 12.8802C7.78164 11.528 8.31878 10.2313 9.27491 9.27513C10.231 8.31901 11.5278 7.78187 12.88 7.78187C14.2321 7.78187 15.5289 8.31901 16.485 9.27513C17.4412 10.2313 17.9783 11.528 17.9783 12.8802C17.9783 14.2324 17.4412 15.5291 16.485 16.4853C15.5289 17.4414 14.2321 17.9785 12.88 17.9785C11.5278 17.9785 10.231 17.4414 9.27491 16.4853C8.31878 15.5291 7.78164 14.2324 7.78164 12.8802Z" fill="#FE1B1C"/>
</svg>
