<svg width="46" height="46" viewBox="0 0 46 46" fill="none" xmlns="http://www.w3.org/2000/svg">
<g opacity="0.8" filter="url(#filter0_b_1103_3056)">
<path fill-rule="evenodd" clip-rule="evenodd" d="M22.7838 45.2863C35.0908 45.2863 45.0676 35.3095 45.0676 23.0025C45.0676 10.6955 35.0908 0.71875 22.7838 0.71875C10.4768 0.71875 0.5 10.6955 0.5 23.0025C0.5 35.3095 10.4768 45.2863 22.7838 45.2863ZM21.471 15.2348C21.8413 15.2348 22.1963 15.3819 22.4582 15.6436C22.7199 15.9054 22.867 16.2605 22.867 16.6308C22.867 17.001 22.7199 17.3561 22.4582 17.6179L18.6785 21.5176H30.3791C30.7494 21.5176 31.1046 21.6647 31.3664 21.9266C31.6283 22.1884 31.7754 22.5436 31.7754 22.9139C31.7754 23.2842 31.6283 23.6393 31.3664 23.9012C31.1046 24.163 30.7494 24.3101 30.3791 24.3101H18.6785L22.4582 28.2099C22.7125 28.4732 22.8532 28.8259 22.8501 29.192C22.8469 29.5581 22.7 29.9083 22.4412 30.1671C22.1823 30.426 21.8321 30.5729 21.466 30.576C21.0999 30.5792 20.7472 30.4385 20.4839 30.1841L14.2008 23.901C13.939 23.6392 13.792 23.2841 13.792 22.9139C13.792 22.5436 13.939 22.1886 14.2008 21.9267L20.4839 15.6436C20.7457 15.3819 21.1008 15.2348 21.471 15.2348Z" fill="white" fill-opacity="0.4"/>
</g>
<defs>
<filter id="filter0_b_1103_3056" x="-57.1757" y="-56.9569" width="159.919" height="159.919" filterUnits="userSpaceOnUse" color-interpolation-filters="sRGB">
<feFlood flood-opacity="0" result="BackgroundImageFix"/>
<feGaussianBlur in="BackgroundImageFix" stdDeviation="28.8378"/>
<feComposite in2="SourceAlpha" operator="in" result="effect1_backgroundBlur_1103_3056"/>
<feBlend mode="normal" in="SourceGraphic" in2="effect1_backgroundBlur_1103_3056" result="shape"/>
</filter>
</defs>
</svg>
