<svg width="25" height="25" viewBox="0 0 311 400" currentColor="#000000" xmlns="http://www.w3.org/2000/svg">
<path d="M266.571 162.905V111.071C266.571 50.3524 216.219 0 155.5 0C94.7809 0 44.4286 50.3524 44.4286 111.072V162.906C19.252 162.906 0 182.158 0 207.334V355.429C0 380.605 19.252 399.857 44.4286 399.857H266.571C291.748 399.857 311 380.605 311 355.429V207.333C311 183.638 291.748 162.905 266.571 162.905ZM162.905 279.9V318.405C162.905 322.848 159.943 325.81 155.5 325.81C151.058 325.81 148.096 322.848 148.096 318.405V279.9C139.21 276.939 133.286 268.052 133.286 259.167C133.286 247.319 143.654 236.952 155.501 236.952C167.349 236.952 177.716 247.319 177.716 259.167C177.714 269.533 171.79 276.939 162.905 279.9ZM222.143 162.905H88.8571V111.071C88.8571 74.0476 118.476 44.4286 155.5 44.4286C192.523 44.4286 222.142 74.0476 222.142 111.071V162.905H222.143Z" fill="white"/>
</svg>
