<svg width="22" height="19" viewBox="0 0 22 19" fill="none" xmlns="http://www.w3.org/2000/svg">
<path fill-rule="evenodd" clip-rule="evenodd" d="M19.3874 0.690044C19.6527 0.578408 19.943 0.539905 20.2282 0.578543C20.5133 0.617181 20.7829 0.731548 21.0089 0.909739C21.2349 1.08793 21.409 1.32343 21.513 1.59173C21.6171 1.86003 21.6474 2.15132 21.6007 2.43528L19.1663 17.2011C18.9302 18.6254 17.3674 19.4422 16.0612 18.7328C14.9685 18.1392 13.3456 17.2247 11.8859 16.2705C11.156 15.7929 8.9203 14.2634 9.19507 13.1751C9.4312 12.2445 13.1879 8.74756 15.3345 6.66851C16.1771 5.8517 15.7928 5.38051 14.7979 6.13184C12.3271 7.9973 8.36002 10.8341 7.0484 11.6327C5.89135 12.3368 5.28814 12.457 4.56686 12.3368C3.25095 12.1178 2.03057 11.7787 1.03452 11.3654C-0.311444 10.8073 -0.245971 8.95686 1.03344 8.41804L19.3874 0.690044Z" fill="#FE1B1C"/>
</svg>
