<svg width="21" height="19" viewBox="0 0 21 19" fill="none" xmlns="http://www.w3.org/2000/svg">
<path d="M2.17128 1.28461C2.36561 1.26202 2.56242 1.29298 2.74043 1.37414C2.91844 1.45529 3.07089 1.58356 3.18129 1.74507C4.76553 4.0624 6.66748 5.02625 8.77872 5.24521C8.88176 4.34253 9.12541 3.4506 9.58372 2.66492C10.2556 1.51216 11.3483 0.664222 12.9089 0.350809C15.0663 -0.0828181 16.7085 0.698569 17.6606 1.65491L19.584 1.29534C19.7852 1.25763 19.9931 1.27828 20.183 1.35486C20.3729 1.43143 20.537 1.56074 20.6558 1.72752C20.7746 1.89429 20.8433 2.09158 20.8536 2.29609C20.8639 2.50061 20.8156 2.70381 20.7142 2.88173L18.8681 6.12534C19.0366 10.8061 17.7357 14.0734 14.9622 16.3242C13.4917 17.5177 11.3858 18.195 9.07496 18.4043C6.74583 18.6146 4.11294 18.3603 1.49616 17.5961C1.27257 17.5308 1.07627 17.3947 0.936869 17.2081C0.79747 17.0215 0.72254 16.7947 0.723389 16.5618C0.724237 16.3289 0.800817 16.1025 0.941571 15.917C1.08233 15.7314 1.27962 15.5967 1.50367 15.5331C2.81958 15.1585 3.82207 14.8354 4.72689 14.2698C3.43996 13.5872 2.49221 12.6941 1.82138 11.6766C0.889722 10.262 0.544109 8.68417 0.475415 7.262C0.406722 5.83984 0.611729 4.52178 0.828542 3.57188C0.951975 3.02985 1.0958 2.48674 1.29437 1.96725C1.36441 1.78413 1.48327 1.62369 1.63805 1.50335C1.79283 1.383 1.97655 1.30735 2.17128 1.28461Z" fill="#FE1B1C"/>
</svg>
